#!OML:ASF E:\Style4\Style4.ASF
:FULLY-SPECIFIED
:DEGREES
1720
root -0.310186 17.872 -1.85792 8.66375 9.19968 6.21005
lowerback 13.7963 5.09061 2.75772
upperback 6.73753 7.04778 0.0377333
thorax -0.260148 3.5951 -2.44078
lowerneck 3.37727 -12.8028 -5.51382
upperneck 4.02814 -17.2389 3.89008
head 1.57867 -8.63367 1.94308
rclavicle -5.56597e-014 2.06736e-014
rhumerus 62.2444 -15.3628 -39.0569
rradius 35.2883
rwrist 1.28248
rhand 37.5104 0.689986
rfingers 7.12502
rthumb 60.3013 -12.7701
lclavicle -5.56597e-014 2.06736e-014
lhumerus 22.5454 -11.8238 8.60148
lradius 94.8567
lwrist 24.0782
lhand 32.4026 41.1487
lfingers 7.12502
lthumb 55.853 58.6519
rfemur -26.7767 -7.33479 13.8209
rtibia 36.7429
rfoot -15.1732 -21.1048
rtoes -13.1257
lfemur -23.184 -4.06895 -23.0076
ltibia 24.119
lfoot -8.98596 3.41121
ltoes -16.8662
1721
root -0.310818 17.8646 -1.86348 8.70464 9.19823 6.22587
lowerback 13.8587 5.15482 2.9991
upperback 6.78933 7.16518 0.280995
thorax -0.233165 3.65556 -2.33921
lowerneck 3.47854 -12.9725 -5.57578
upperneck 3.80984 -17.452 3.41309
head 1.45812 -8.74391 1.81729
rclavicle 7.87187e-014 -1.59028e-014
rhumerus 62.2025 -15.2971 -39.5991
rradius 35.0171
rwrist 1.89225
rhand 37.2861 0.793859
rfingers 7.12502
rthumb 60.1099 -12.8705
lclavicle 7.87187e-014 -1.59028e-014
lhumerus 21.8285 -11.1146 7.91009
lradius 95.0569
lwrist 24.7193
lhand 32.6593 41.4871
lfingers 7.12502
lthumb 56.0805 58.8142
rfemur -26.9876 -7.40131 13.8234
rtibia 36.9988
rfoot -15.4028 -20.9991
rtoes -12.0974
lfemur -23.3916 -4.0668 -23.0292
ltibia 24.3672
lfoot -9.06085 3.45812
ltoes -17.0018
1722
root -0.311339 17.8574 -1.86906 8.73679 9.16533 6.26984
lowerback 13.9149 5.18006 3.14388
upperback 6.8486 7.22015 0.563415
thorax -0.216519 3.6817 -2.13629
lowerneck 3.62987 -13.0589 -5.76211
upperneck 3.55444 -17.563 2.92883
head 1.32338 -8.80389 1.71721
rclavicle 4.69132e-014 6.36111e-015
rhumerus 62.4154 -15.1914 -40.527
rradius 34.7049
rwrist 3.09019
rhand 37.5891 1.33538
rfingers 7.12502
rthumb 60.3684 -12.0523
lclavicle 4.69132e-014 6.36111e-015
lhumerus 20.9604 -10.4206 7.1953
lradius 95.2324
lwrist 25.4382
lhand 32.9145 41.7447
lfingers 7.12502
lthumb 56.3064 58.8942
rfemur -27.2052 -7.42535 13.7822
rtibia 37.2819
rfoot -15.7887 -20.8717
rtoes -10.4269
lfemur -23.6067 -3.99956 -23.0947
ltibia 24.653
lfoot -9.21995 3.47754
ltoes -17.4968
1723
root -0.311378 17.845 -1.8756 8.80567 9.11875 6.43022
lowerback 13.9726 5.19023 3.19146
upperback 6.84439 7.24445 0.802026
thorax -0.276252 3.68865 -1.92654
lowerneck 3.93382 -13.0577 -6.15511
upperneck 3.35783 -17.5787 2.61138
head 1.215 -8.81748 1.70918
rclavicle -2.38542e-014 -1.43125e-014
rhumerus 62.3046 -14.8446 -40.9568
rradius 34.6632
rwrist 3.50687
rhand 37.6159 1.32453
rfingers 7.12502
rthumb 60.3912 -12.0385
lclavicle -2.38542e-014 -1.43125e-014
lhumerus 20.071 -9.87985 6.42485
lradius 95.3663
lwrist 26.1437
lhand 33.1066 41.8589
lfingers 7.12502
lthumb 56.4762 58.8732
rfemur -27.483 -7.50756 13.6045
rtibia 37.6106
rfoot -15.9846 -20.7555
rtoes -10.0178
lfemur -23.862 -3.90466 -23.2878
ltibia 24.9731
lfoot -9.37142 3.45483
ltoes -17.6778
1724
root -0.311075 17.8311 -1.88376 8.90461 9.09394 6.59449
lowerback 14.0099 5.24852 3.33219
upperback 6.85534 7.34132 0.974726
thorax -0.284205 3.73662 -1.84069
lowerneck 4.12967 -13.1377 -6.29441
upperneck 3.17825 -17.6916 2.23321
head 1.10468 -8.87469 1.63578
rclavicle -1.36764e-013 -3.18055e-015
rhumerus 61.9297 -14.5882 -41.0344
rradius 34.6597
rwrist 3.31457
rhand 37.0711 0.761733
rfingers 7.12502
rthumb 59.9262 -13.0959
lclavicle -1.36764e-013 -3.18055e-015
lhumerus 19.5592 -9.31584 5.58669
lradius 95.3675
lwrist 26.8139
lhand 33.3205 41.897
lfingers 7.12502
lthumb 56.6649 58.7588
rfemur -27.8189 -7.64895 13.4363
rtibia 37.9714
rfoot -16.0311 -20.673
rtoes -10.7915
lfemur -24.1778 -3.83015 -23.4919
ltibia 25.3266
lfoot -9.45251 3.44759
ltoes -18.3061
1725
root -0.308588 17.8165 -1.89453 8.97697 9.07789 6.70255
lowerback 14.1274 5.32698 3.58867
upperback 6.90408 7.48018 1.11938
thorax -0.273153 3.80967 -1.85707
lowerneck 4.03166 -13.3039 -6.14027
upperneck 3.12871 -17.8913 1.65183
head 1.03963 -8.9714 1.43195
rclavicle 3.49861e-014 -9.54166e-015
rhumerus 61.656 -14.5569 -41.3204
rradius 34.5022
rwrist 3.35093
rhand 36.5561 0.415919
rfingers 7.12502
rthumb 59.4842 -13.8947
lclavicle 3.49861e-014 -9.54166e-015
lhumerus 19.3129 -8.69853 4.85686
lradius 95.2507
lwrist 27.325
lhand 33.5049 42.1099
lfingers 7.12502
lthumb 56.8274 58.8388
rfemur -28.1406 -7.8047 13.346
rtibia 38.3552
rfoot -16.0233 -20.5736
rtoes -11.3466
lfemur -24.5014 -3.77684 -23.6363
ltibia 25.7233
lfoot -9.55021 3.42213
ltoes -18.4996
1726
root -0.305739 17.8008 -1.90229 9.00733 9.00918 6.82634
lowerback 14.2653 5.41659 3.79099
upperback 6.95059 7.62861 1.28207
thorax -0.283904 3.8853 -1.82927
lowerneck 4.05107 -13.4732 -6.10453
upperneck 3.00658 -18.1094 1.16624
head 0.953013 -9.07787 1.28692
rclavicle -9.62118e-014 3.49861e-014
rhumerus 61.3899 -14.5194 -41.6971
rradius 34.4235
rwrist 3.55132
rhand 36.5332 0.278469
rfingers 7.12502
rthumb 59.4646 -14.0519
lclavicle -9.62118e-014 3.49861e-014
lhumerus 19.0365 -8.14345 4.15211
lradius 95.1405
lwrist 27.7266
lhand 33.6946 42.1725
lfingers 7.12502
lthumb 56.9944 58.7632
rfemur -28.4417 -7.91964 13.2098
rtibia 38.7781
rfoot -16.3583 -20.3628
rtoes -10.725
lfemur -24.7609 -3.70436 -23.8005
ltibia 26.1291
lfoot -9.68666 3.40168
ltoes -18.6227
1727
root -0.304662 17.7829 -1.90695 9.02665 8.89379 6.98387
lowerback 14.3539 5.49848 3.89404
upperback 6.999 7.75272 1.42956
thorax -0.279283 3.94719 -1.75522
lowerneck 4.13823 -13.6151 -6.00909
upperneck 2.83946 -18.2952 0.662883
head 0.831864 -9.16648 1.13859
rclavicle 4.85035e-014 1.27222e-014
rhumerus 61.1537 -14.4067 -42.067
rradius 34.2729
rwrist 3.80943
rhand 36.5523 0.463982
rfingers 7.12502
rthumb 59.481 -13.8499
lclavicle 4.85035e-014 1.27222e-014
lhumerus 18.6268 -7.56094 3.3554
lradius 95.1345
lwrist 28.2187
lhand 33.8945 42.3881
lfingers 7.12502
lthumb 57.1701 58.8316
rfemur -28.7647 -7.97746 13.0232
rtibia 39.2545
rfoot -16.7717 -20.174
rtoes -10.5749
lfemur -24.9949 -3.54624 -24.0089
ltibia 26.5604
lfoot -9.82655 3.27011
ltoes -18.3875
1728
root -0.303257 17.7646 -1.91563 9.02551 8.77881 7.22429
lowerback 14.4767 5.5642 3.9183
upperback 7.05444 7.84672 1.54337
thorax -0.293255 3.99264 -1.67293
lowerneck 4.25816 -13.7121 -5.89262
upperneck 2.70564 -18.4242 0.199839
head 0.716094 -9.22603 1.00319
rclavicle 3.97569e-015 5.24792e-014
rhumerus 60.8555 -14.1802 -42.4191
rradius 34.1339
rwrist 3.70835
rhand 35.9351 0.378803
rfingers 7.12502
rthumb 58.9488 -14.4596
lclavicle 3.97569e-015 5.24792e-014
lhumerus 18.2244 -6.9744 2.49504
lradius 95.1537
lwrist 28.7848
lhand 33.9717 42.6719
lfingers 7.12502
lthumb 57.2378 59.058
rfemur -29.0763 -8.09192 12.7586
rtibia 39.7708
rfoot -16.6975 -20.0973
rtoes -11.4824
lfemur -25.2332 -3.36483 -24.3136
ltibia 27.0382
lfoot -9.95365 3.03985
ltoes -17.5275
1729
root -0.299107 17.7452 -1.92502 9.00409 8.60094 7.32976
lowerback 14.5644 5.64023 4.05206
upperback 7.12453 7.96659 1.71033
thorax -0.264242 4.05353 -1.59341
lowerneck 4.36391 -13.7864 -5.85687
upperneck 2.58055 -18.5271 -0.225099
head 0.616147 -9.2729 0.889816
rclavicle -1.03368e-014 -7.31528e-014
rhumerus 60.5641 -13.8758 -42.7213
rradius 33.9872
rwrist 3.40236
rhand 34.9302 -0.0254971
rfingers 7.12502
rthumb 58.0764 -15.6782
lclavicle -1.03368e-014 -7.31528e-014
lhumerus 17.8803 -6.378 1.67993
lradius 95.064
lwrist 29.2319
lhand 34.2826 42.7643
lfingers 7.12502
lthumb 57.5104 58.917
rfemur -29.4121 -8.16623 12.658
rtibia 40.3146
rfoot -16.5903 -19.9901
rtoes -12.0774
lfemur -25.5157 -3.18625 -24.4758
ltibia 27.5627
lfoot -10.0936 2.96376
ltoes -17.0492
1730
root -0.295457 17.7254 -1.93511 8.98211 8.44461 7.33843
lowerback 14.6823 5.70036 4.29894
upperback 7.18574 8.08193 1.89879
thorax -0.247617 4.11389 -1.55587
lowerneck 4.38395 -13.857 -5.80294
upperneck 2.47163 -18.6214 -0.684596
head 0.52957 -9.31523 0.758075
rclavicle -7.15625e-014 -3.18055e-015
rhumerus 60.367 -13.6838 -43.1285
rradius 33.8137
rwrist 3.62401
rhand 34.6267 -0.159687
rfingers 7.12502
rthumb 57.8115 -16.049
lclavicle -7.15625e-014 -3.18055e-015
lhumerus 17.6395 -5.73771 0.887375
lradius 94.9011
lwrist 29.6001
lhand 34.8304 42.865
lfingers 7.12502
lthumb 57.9894 58.5959
rfemur -29.7844 -8.18197 12.6516
rtibia 40.874
rfoot -16.6456 -19.8395
rtoes -12.455
lfemur -25.8375 -2.98467 -24.5334
ltibia 28.1292
lfoot -10.3073 2.93215
ltoes -17.3014
1731
root -0.293247 17.7042 -1.94566 8.93726 8.31355 7.41095
lowerback 14.9032 5.76256 4.52356
upperback 7.2104 8.20349 2.03552
thorax -0.318683 4.17506 -1.57467
lowerneck 4.41147 -13.9513 -5.69043
upperneck 2.40849 -18.7449 -1.15653
head 0.450119 -9.37184 0.614692
rclavicle -8.26944e-014 3.18055e-014
rhumerus 60.0546 -13.5327 -43.51
rradius 33.7193
rwrist 4.03177
rhand 34.7217 -0.0114605
rfingers 7.12502
rthumb 57.8945 -15.8272
lclavicle -8.26944e-014 3.18055e-014
lhumerus 17.6206 -5.12684 0.0151625
lradius 94.6905
lwrist 30.0715
lhand 35.1136 43.1897
lfingers 7.12502
lthumb 58.2361 58.6973
rfemur -30.1173 -8.21661 12.5659
rtibia 41.407
rfoot -16.6622 -19.7319
rtoes -12.8406
lfemur -26.1366 -2.8368 -24.6487
ltibia 28.7322
lfoot -10.5665 2.86338
ltoes -17.1473
1732
root -0.290635 17.6807 -1.9565 8.89202 8.13224 7.52452
lowerback 15.1469 5.81435 4.65879
upperback 7.20948 8.30308 2.16861
thorax -0.442396 4.22121 -1.55163
lowerneck 4.56182 -14.006 -5.58508
upperneck 2.2502 -18.8283 -1.60858
head 0.323511 -9.40535 0.493993
rclavicle 5.24792e-014 -1.90833e-014
rhumerus 59.666 -13.2294 -43.8379
rradius 33.699
rwrist 4.24391
rhand 34.6663 -0.112747
rfingers 7.12502
rthumb 57.8461 -15.9714
lclavicle 5.24792e-014 -1.90833e-014
lhumerus 17.5908 -4.58928 -0.802818
lradius 94.4683
lwrist 30.7579
lhand 34.9578 43.6867
lfingers 7.12502
lthumb 58.1004 59.3177
rfemur -30.4476 -8.23809 12.432
rtibia 41.9104
rfoot -17.0201 -19.5369
rtoes -12.2623
lfemur -26.4525 -2.67736 -24.8022
ltibia 29.3583
lfoot -10.8399 2.82719
ltoes -16.9886
